<?xml version="1.0" encoding="utf-8"?>
<svg xmlns="http://www.w3.org/2000/svg" class="visually-hidden">
<symbol id="arrow" viewBox="0 0 15 25"><path d="M15 12.5L2.5 25 0 22.5l10-10-10-10L2.5 0z"/>
</symbol>
<symbol id="elink" viewBox="0 0 14 11"><path d="M0 3h2V0h12v8h-2v3H0zm13-2H3v6h10zM2 4H1v4h1zm-1 6h10V8H1z"/>
</symbol>
<symbol id="facebook" viewBox="0 0 100 100"><path d="M69 50H58.27v37.2h-18V50h-7V37.45h7v-8C40.28 19 44.93 12.8 58.16 12.8h13.38v12.49h-7.78c-5.14 0-5.47 1.8-5.47 5.12v7H70.5zm0 0" fill="#fff"/>
</symbol>
<symbol id="flickr" viewBox="0 0 514.17 514.17"><defs><style>.text{fill:#fff;stroke:#fff}</style></defs><g id="flickr"><path id="path-f" class="text" d="M20.59 253.06H0v-25.35h21.17v-6.44c0-31.18 14.18-42.05 42.15-42.05 7.58 0 13.4 1.21 17.87 2.01l-2.14 24.95c-2.91-1.01-5.83-1.61-11.07-1.61-8.94 0-12.43 6.44-12.43 16.7v6.44h24.86v25.35H55.55v79.47H20.59v-79.47z"/><path id="rect-l" class="text" d="M98.68 181.64h34.96v150.89H98.68z"/><path id="rect-i-dot" class="text" d="M163.55 184.05h34.96v26.56h-34.96z"/><path id="rect-i" class="text" d="M163.55 227.71h34.96v104.82h-34.96z"/><path id="path-c" class="text" d="M303.6 257.68c-6.41-4.02-12.82-5.83-21.17-5.83-15.15 0-26.81 10.86-26.81 28.97 0 16.7 13.6 27.56 28.75 27.56 7.96 0 15.93-1.81 21.76-5.03l.78 26.96c-8.74 3.02-19.23 4.63-28.55 4.63-33.41 0-58.86-20.12-58.86-54.72s25.44-54.92 58.86-54.92c10.49 0 19.81 1.81 27.78 5.83l-2.53 26.55z"/><path id="polygon-k" class="text" d="M321.48 181.64h34.96v90.13h.39l29.14-44.06h38.26l-35.16 48.08 38.07 56.74H384.8l-27.97-51.91h-.39v51.91h-34.96V181.64z"/><path id="path-r" class="text" d="M512.42 256.68c-3.88-1.21-7.77-1.21-11.85-1.21-16.32 0-25.45 12.27-25.45 32.79v44.26h-34.96V227.7h31.86v19.31h.39c6.02-13.28 14.76-21.73 29.91-21.73 4.08 0 8.35.6 11.85 1.21l-1.75 30.18z"/></g>
</symbol>
<symbol id="instagram" viewBox="0 0 1000 1000"><path d="M292.92 3.5c-53.2 2.51-89.53 11-121.29 23.48-32.87 12.81-60.73 30-88.45 57.82s-44.79 55.7-57.51 88.62c-12.31 31.83-20.65 68.19-23 121.42S-.2 365.18.06 500.96.92 653.76 3.5 707.1c2.54 53.19 11 89.51 23.48 121.28 12.83 32.87 30 60.72 57.83 88.45s55.69 44.76 88.69 57.5c31.8 12.29 68.17 20.67 121.39 23s70.35 2.87 206.09 2.61 152.83-.86 206.16-3.39 89.46-11.05 121.24-23.47c32.87-12.86 60.74-30 88.45-57.84s44.77-55.74 57.48-88.68c12.32-31.8 20.69-68.17 23-121.35 2.33-53.37 2.88-70.41 2.62-206.17s-.87-152.78-3.4-206.1-11-89.53-23.47-121.32c-12.85-32.87-30-60.7-57.82-88.45s-55.74-44.8-88.67-57.48c-31.82-12.31-68.17-20.7-121.39-23S634.83-.2 499.04.06 346.25.9 292.92 3.5m5.84 903.88c-48.75-2.12-75.22-10.22-92.86-17-23.36-9-40-19.88-57.58-37.29s-28.38-34.11-37.5-57.42c-6.85-17.64-15.1-44.08-17.38-92.83-2.48-52.69-3-68.51-3.29-202s.22-149.29 2.53-202c2.08-48.71 10.23-75.21 17-92.84 9-23.39 19.84-40 37.29-57.57s34.1-28.39 57.43-37.51c17.62-6.88 44.06-15.06 92.79-17.38 52.73-2.5 68.53-3 202-3.29s149.31.21 202.06 2.53c48.71 2.12 75.22 10.19 92.83 17 23.37 9 40 19.81 57.57 37.29s28.4 34.07 37.52 57.45c6.89 17.57 15.07 44 17.37 92.76 2.51 52.73 3.08 68.54 3.32 202s-.23 149.31-2.54 202c-2.13 48.75-10.21 75.23-17 92.89-9 23.35-19.85 40-37.31 57.56s-34.09 28.38-57.43 37.5c-17.6 6.87-44.07 15.07-92.76 17.39-52.73 2.48-68.53 3-202.05 3.29s-149.27-.25-202-2.53m407.6-674.61a60 60 0 1059.88-60.1 60 60 0 00-59.88 60.1M243.27 500.5c.28 141.8 115.44 256.49 257.21 256.22S757.02 641.3 756.75 499.5 641.29 242.98 499.5 243.26 243 358.72 243.27 500.5m90.06-.18a166.67 166.67 0 11167 166.34 166.65 166.65 0 01-167-166.34" fill="#fff"/>
</symbol>
<symbol id="linkedin"><path d="M62 62H51.316V43.802c0-4.99-1.896-7.777-5.845-7.777-4.296 0-6.54 2.901-6.54 7.777V62H28.632V27.333H38.93v4.67s3.096-5.729 10.453-5.729c7.353 0 12.617 4.49 12.617 13.777V62zM16.35 22.794c-3.508 0-6.35-2.864-6.35-6.397C10 12.864 12.842 10 16.35 10c3.507 0 6.347 2.864 6.347 6.397 0 3.533-2.84 6.397-6.348 6.397zM11.032 62h10.736V27.333H11.033V62z" fill="#FFF"/>
</symbol>
<symbol id="twitter" viewBox="0 0 248 204"><path fill="#fff" d="M221.95 51.29c.15 2.17.15 4.34.15 6.53 0 66.73-50.8 143.69-143.69 143.69v-.04c-27.44.04-54.31-7.82-77.41-22.64 3.99.48 8 .72 12.02.73 22.74.02 44.83-7.61 62.72-21.66-21.61-.41-40.56-14.5-47.18-35.07a50.338 50.338 0 0022.8-.87C27.8 117.2 10.85 96.5 10.85 72.46v-.64a50.18 50.18 0 0022.92 6.32C11.58 63.31 4.74 33.79 18.14 10.71a143.333 143.333 0 00104.08 52.76 50.532 50.532 0 0114.61-48.25c20.34-19.12 52.33-18.14 71.45 2.19 11.31-2.23 22.15-6.38 32.07-12.26a50.69 50.69 0 01-22.2 27.93c10.01-1.18 19.79-3.86 29-7.95a102.594 102.594 0 01-25.2 26.16z"/>
</symbol>
<symbol id="youtube" viewBox="0 0 176 124"><path d="M172.32 19.36c-2.02-7.62-7.99-13.62-15.56-15.66C143.04 0 88 0 88 0S32.96 0 19.24 3.7C11.67 5.74 5.7 11.74 3.68 19.36 0 33.18 0 62 0 62s0 28.82 3.68 42.64c2.02 7.62 7.99 13.62 15.56 15.66C32.97 124 88 124 88 124s55.04 0 68.76-3.7c7.57-2.04 13.54-8.04 15.56-15.66C176 90.83 176 62 176 62s0-28.82-3.68-42.64zM70 88.17V35.83L116 62 70 88.17z" fill="#fff"/>
</symbol></svg>
