<svg class="canvas" xmlns="http://www.w3.org/2000/svg" viewBox="0 0 514.17 514.17"><defs><style>.text{fill:#fff;stroke:#fff}</style></defs><g id="flickr"><path id="path-f" class="text" d="M20.59 253.06H0v-25.35h21.17v-6.44c0-31.18 14.18-42.05 42.15-42.05 7.58 0 13.4 1.21 17.87 2.01l-2.14 24.95c-2.91-1.01-5.83-1.61-11.07-1.61-8.94 0-12.43 6.44-12.43 16.7v6.44h24.86v25.35H55.55v79.47H20.59v-79.47z"/><path id="rect-l" class="text" d="M98.68 181.64h34.96v150.89H98.68z"/><path id="rect-i-dot" class="text" d="M163.55 184.05h34.96v26.56h-34.96z"/><path id="rect-i" class="text" d="M163.55 227.71h34.96v104.82h-34.96z"/><path id="path-c" class="text" d="M303.6 257.68c-6.41-4.02-12.82-5.83-21.17-5.83-15.15 0-26.81 10.86-26.81 28.97 0 16.7 13.6 27.56 28.75 27.56 7.96 0 15.93-1.81 21.76-5.03l.78 26.96c-8.74 3.02-19.23 4.63-28.55 4.63-33.41 0-58.86-20.12-58.86-54.72s25.44-54.92 58.86-54.92c10.49 0 19.81 1.81 27.78 5.83l-2.53 26.55z"/><path id="polygon-k" class="text" d="M321.48 181.64h34.96v90.13h.39l29.14-44.06h38.26l-35.16 48.08 38.07 56.74H384.8l-27.97-51.91h-.39v51.91h-34.96V181.64z"/><path id="path-r" class="text" d="M512.42 256.68c-3.88-1.21-7.77-1.21-11.85-1.21-16.32 0-25.45 12.27-25.45 32.79v44.26h-34.96V227.7h31.86v19.31h.39c6.02-13.28 14.76-21.73 29.91-21.73 4.08 0 8.35.6 11.85 1.21l-1.75 30.18z"/></g></svg>